# xmcd
#
# Track frame offsets:
#	182
#	13747
#	25290
#	37150
#	49200
#	59947
#	73612
#	86682
#	97025
#	109707
#	122792
#
# Disc length: 1798 seconds
#
# Revision: 1
# Processed by: cddbd v1.5.2PL0 Copyright (c) Steve Scherf et al.
# Submitted via: EZCDAudioConverter 4.0.5.1
#
DISCID=a207040b
DTITLE=Carl Perkins - My Kind of Country
DYEAR=1973
DGENRE=Country
TTITLE0=(Let's Get) Dixiefried
TTITLE1=You Tore My Heaven All to Hell
TTITLE2=Love, Sweet Love
TTITLE3=One More Loser Going Home
TTITLE4=Just As Long
TTITLE5=Goin' to Memphis
TTITLE6=Never Look Back
TTITLE7=Honky Tonk Song
TTITLE8=Lord, I Sinned Again Last Night
TTITLE9=Help Me Dream
TTITLE10=Ruby, Don't Take Your Love to Town
EXTD=
EXTT0=
EXTT1=
EXTT2=
EXTT3=
EXTT4=
EXTT5=
EXTT6=
EXTT7=
EXTT8=
EXTT9=
EXTT10=
PLAYORDER=
